<?xml version="1.0" encoding="UTF-8" standalone="no"?>
<!DOCTYPE svg PUBLIC "-//W3C//DTD SVG 1.1//EN"
 "http://www.w3.org/Graphics/SVG/1.1/DTD/svg11.dtd">
<!-- Generated by graphviz version 12.1.1 (20240910.0053)
 -->
<!-- Title: INFRA Pages: 1 -->
<svg width="1658pt" height="296pt"
 viewBox="0.00 0.00 1657.80 296.00" xmlns="http://www.w3.org/2000/svg" xmlns:xlink="http://www.w3.org/1999/xlink">
<g id="graph0" class="graph" transform="scale(1 1) rotate(0) translate(4 292)">
<title>INFRA</title>
<polygon fill="white" stroke="none" points="-4,4 -4,-292 1653.8,-292 1653.8,4 -4,4"/>
<!-- jobs -->
<g id="node1" class="node">
<title>jobs</title>
<path fill="#ffcfb3" stroke="black" stroke-width="2" d="M156.8,-173.45C156.8,-177.07 121.66,-180 78.4,-180 35.14,-180 0,-177.07 0,-173.45 0,-173.45 0,-114.55 0,-114.55 0,-110.93 35.14,-108 78.4,-108 121.66,-108 156.8,-110.93 156.8,-114.55 156.8,-114.55 156.8,-173.45 156.8,-173.45"/>
<path fill="none" stroke="black" stroke-width="2" d="M156.8,-173.45C156.8,-169.84 121.66,-166.91 78.4,-166.91 35.14,-166.91 0,-169.84 0,-173.45"/>
<text text-anchor="middle" x="78.4" y="-148.2" font-family="Arial" font-size="14.00">jobs</text>
<text text-anchor="middle" x="78.4" y="-131.4" font-family="Arial" font-size="14.00">(AWS::RDS::DBTable)</text>
</g>
<!-- job_batches -->
<g id="node2" class="node">
<title>job_batches</title>
<path fill="#ffcfb3" stroke="black" stroke-width="2" d="M418.8,-281.45C418.8,-285.07 383.66,-288 340.4,-288 297.14,-288 262,-285.07 262,-281.45 262,-281.45 262,-222.55 262,-222.55 262,-218.93 297.14,-216 340.4,-216 383.66,-216 418.8,-218.93 418.8,-222.55 418.8,-222.55 418.8,-281.45 418.8,-281.45"/>
<path fill="none" stroke="black" stroke-width="2" d="M418.8,-281.45C418.8,-277.84 383.66,-274.91 340.4,-274.91 297.14,-274.91 262,-277.84 262,-281.45"/>
<text text-anchor="middle" x="340.4" y="-256.2" font-family="Arial" font-size="14.00">job_batches</text>
<text text-anchor="middle" x="340.4" y="-239.4" font-family="Arial" font-size="14.00">(AWS::RDS::DBTable)</text>
</g>
<!-- failed_jobs -->
<g id="node3" class="node">
<title>failed_jobs</title>
<path fill="#ffcfb3" stroke="black" stroke-width="2" d="M593.8,-281.45C593.8,-285.07 558.66,-288 515.4,-288 472.14,-288 437,-285.07 437,-281.45 437,-281.45 437,-222.55 437,-222.55 437,-218.93 472.14,-216 515.4,-216 558.66,-216 593.8,-218.93 593.8,-222.55 593.8,-222.55 593.8,-281.45 593.8,-281.45"/>
<path fill="none" stroke="black" stroke-width="2" d="M593.8,-281.45C593.8,-277.84 558.66,-274.91 515.4,-274.91 472.14,-274.91 437,-277.84 437,-281.45"/>
<text text-anchor="middle" x="515.4" y="-256.2" font-family="Arial" font-size="14.00">failed_jobs</text>
<text text-anchor="middle" x="515.4" y="-239.4" font-family="Arial" font-size="14.00">(AWS::RDS::DBTable)</text>
</g>
<!-- cache -->
<g id="node4" class="node">
<title>cache</title>
<path fill="#ffcfb3" stroke="black" stroke-width="2" d="M768.8,-281.45C768.8,-285.07 733.66,-288 690.4,-288 647.14,-288 612,-285.07 612,-281.45 612,-281.45 612,-222.55 612,-222.55 612,-218.93 647.14,-216 690.4,-216 733.66,-216 768.8,-218.93 768.8,-222.55 768.8,-222.55 768.8,-281.45 768.8,-281.45"/>
<path fill="none" stroke="black" stroke-width="2" d="M768.8,-281.45C768.8,-277.84 733.66,-274.91 690.4,-274.91 647.14,-274.91 612,-277.84 612,-281.45"/>
<text text-anchor="middle" x="690.4" y="-256.2" font-family="Arial" font-size="14.00">cache</text>
<text text-anchor="middle" x="690.4" y="-239.4" font-family="Arial" font-size="14.00">(AWS::RDS::DBTable)</text>
</g>
<!-- cache_locks -->
<g id="node5" class="node">
<title>cache_locks</title>
<path fill="#ffcfb3" stroke="black" stroke-width="2" d="M943.8,-281.45C943.8,-285.07 908.66,-288 865.4,-288 822.14,-288 787,-285.07 787,-281.45 787,-281.45 787,-222.55 787,-222.55 787,-218.93 822.14,-216 865.4,-216 908.66,-216 943.8,-218.93 943.8,-222.55 943.8,-222.55 943.8,-281.45 943.8,-281.45"/>
<path fill="none" stroke="black" stroke-width="2" d="M943.8,-281.45C943.8,-277.84 908.66,-274.91 865.4,-274.91 822.14,-274.91 787,-277.84 787,-281.45"/>
<text text-anchor="middle" x="865.4" y="-256.2" font-family="Arial" font-size="14.00">cache_locks</text>
<text text-anchor="middle" x="865.4" y="-239.4" font-family="Arial" font-size="14.00">(AWS::RDS::DBTable)</text>
</g>
<!-- users -->
<g id="node6" class="node">
<title>users</title>
<path fill="#ffcfb3" stroke="black" stroke-width="2" d="M1118.8,-65.45C1118.8,-69.07 1083.66,-72 1040.4,-72 997.14,-72 962,-69.07 962,-65.45 962,-65.45 962,-6.55 962,-6.55 962,-2.93 997.14,0 1040.4,0 1083.66,0 1118.8,-2.93 1118.8,-6.55 1118.8,-6.55 1118.8,-65.45 1118.8,-65.45"/>
<path fill="none" stroke="black" stroke-width="2" d="M1118.8,-65.45C1118.8,-61.84 1083.66,-58.91 1040.4,-58.91 997.14,-58.91 962,-61.84 962,-65.45"/>
<text text-anchor="middle" x="1040.4" y="-40.2" font-family="Arial" font-size="14.00">users</text>
<text text-anchor="middle" x="1040.4" y="-23.4" font-family="Arial" font-size="14.00">(AWS::RDS::DBTable)</text>
</g>
<!-- password_reset_tokens -->
<g id="node7" class="node">
<title>password_reset_tokens</title>
<path fill="#ffcfb3" stroke="black" stroke-width="2" d="M1300.33,-281.45C1300.33,-285.07 1263.61,-288 1218.4,-288 1173.19,-288 1136.47,-285.07 1136.47,-281.45 1136.47,-281.45 1136.47,-222.55 1136.47,-222.55 1136.47,-218.93 1173.19,-216 1218.4,-216 1263.61,-216 1300.33,-218.93 1300.33,-222.55 1300.33,-222.55 1300.33,-281.45 1300.33,-281.45"/>
<path fill="none" stroke="black" stroke-width="2" d="M1300.33,-281.45C1300.33,-277.84 1263.61,-274.91 1218.4,-274.91 1173.19,-274.91 1136.47,-277.84 1136.47,-281.45"/>
<text text-anchor="middle" x="1218.4" y="-256.2" font-family="Arial" font-size="14.00">password_reset_tokens</text>
<text text-anchor="middle" x="1218.4" y="-239.4" font-family="Arial" font-size="14.00">(AWS::RDS::DBTable)</text>
</g>
<!-- sessions -->
<g id="node8" class="node">
<title>sessions</title>
<path fill="#ffcfb3" stroke="black" stroke-width="2" d="M1474.8,-281.45C1474.8,-285.07 1439.66,-288 1396.4,-288 1353.14,-288 1318,-285.07 1318,-281.45 1318,-281.45 1318,-222.55 1318,-222.55 1318,-218.93 1353.14,-216 1396.4,-216 1439.66,-216 1474.8,-218.93 1474.8,-222.55 1474.8,-222.55 1474.8,-281.45 1474.8,-281.45"/>
<path fill="none" stroke="black" stroke-width="2" d="M1474.8,-281.45C1474.8,-277.84 1439.66,-274.91 1396.4,-274.91 1353.14,-274.91 1318,-277.84 1318,-281.45"/>
<text text-anchor="middle" x="1396.4" y="-256.2" font-family="Arial" font-size="14.00">sessions</text>
<text text-anchor="middle" x="1396.4" y="-239.4" font-family="Arial" font-size="14.00">(AWS::RDS::DBTable)</text>
</g>
<!-- tags -->
<g id="node9" class="node">
<title>tags</title>
<path fill="#ffcfb3" stroke="black" stroke-width="2" d="M331.8,-173.45C331.8,-177.07 296.66,-180 253.4,-180 210.14,-180 175,-177.07 175,-173.45 175,-173.45 175,-114.55 175,-114.55 175,-110.93 210.14,-108 253.4,-108 296.66,-108 331.8,-110.93 331.8,-114.55 331.8,-114.55 331.8,-173.45 331.8,-173.45"/>
<path fill="none" stroke="black" stroke-width="2" d="M331.8,-173.45C331.8,-169.84 296.66,-166.91 253.4,-166.91 210.14,-166.91 175,-169.84 175,-173.45"/>
<text text-anchor="middle" x="253.4" y="-148.2" font-family="Arial" font-size="14.00">tags</text>
<text text-anchor="middle" x="253.4" y="-131.4" font-family="Arial" font-size="14.00">(AWS::RDS::DBTable)</text>
</g>
<!-- job_tag -->
<g id="node10" class="node">
<title>job_tag</title>
<path fill="#ffcfb3" stroke="black" stroke-width="2" d="M243.8,-281.45C243.8,-285.07 208.66,-288 165.4,-288 122.14,-288 87,-285.07 87,-281.45 87,-281.45 87,-222.55 87,-222.55 87,-218.93 122.14,-216 165.4,-216 208.66,-216 243.8,-218.93 243.8,-222.55 243.8,-222.55 243.8,-281.45 243.8,-281.45"/>
<path fill="none" stroke="black" stroke-width="2" d="M243.8,-281.45C243.8,-277.84 208.66,-274.91 165.4,-274.91 122.14,-274.91 87,-277.84 87,-281.45"/>
<text text-anchor="middle" x="165.4" y="-256.2" font-family="Arial" font-size="14.00">job_tag</text>
<text text-anchor="middle" x="165.4" y="-239.4" font-family="Arial" font-size="14.00">(AWS::RDS::DBTable)</text>
</g>
<!-- job_tag&#45;&gt;jobs -->
<g id="edge1" class="edge">
<title>job_tag&#45;&gt;jobs</title>
<path fill="none" stroke="black" d="M136.43,-215.7C129.39,-207.12 121.77,-197.84 114.44,-188.91"/>
<polygon fill="black" stroke="black" points="117.25,-186.82 108.2,-181.31 111.84,-191.26 117.25,-186.82"/>
</g>
<!-- job_tag&#45;&gt;tags -->
<g id="edge2" class="edge">
<title>job_tag&#45;&gt;tags</title>
<path fill="none" stroke="black" d="M194.7,-215.7C201.83,-207.12 209.53,-197.84 216.94,-188.91"/>
<polygon fill="black" stroke="black" points="219.56,-191.24 223.26,-181.31 214.18,-186.77 219.56,-191.24"/>
</g>
<!-- employers -->
<g id="node11" class="node">
<title>employers</title>
<path fill="#ffcfb3" stroke="black" stroke-width="2" d="M1118.8,-173.45C1118.8,-177.07 1083.66,-180 1040.4,-180 997.14,-180 962,-177.07 962,-173.45 962,-173.45 962,-114.55 962,-114.55 962,-110.93 997.14,-108 1040.4,-108 1083.66,-108 1118.8,-110.93 1118.8,-114.55 1118.8,-114.55 1118.8,-173.45 1118.8,-173.45"/>
<path fill="none" stroke="black" stroke-width="2" d="M1118.8,-173.45C1118.8,-169.84 1083.66,-166.91 1040.4,-166.91 997.14,-166.91 962,-169.84 962,-173.45"/>
<text text-anchor="middle" x="1040.4" y="-148.2" font-family="Arial" font-size="14.00">employers</text>
<text text-anchor="middle" x="1040.4" y="-131.4" font-family="Arial" font-size="14.00">(AWS::RDS::DBTable)</text>
</g>
<!-- employers&#45;&gt;users -->
<g id="edge3" class="edge">
<title>employers&#45;&gt;users</title>
<path fill="none" stroke="black" d="M1040.4,-107.7C1040.4,-99.93 1040.4,-91.57 1040.4,-83.43"/>
<polygon fill="black" stroke="black" points="1043.9,-83.66 1040.4,-73.66 1036.9,-83.66 1043.9,-83.66"/>
</g>
<!-- posts -->
<g id="node12" class="node">
<title>posts</title>
<path fill="#ffcfb3" stroke="black" stroke-width="2" d="M1649.8,-281.45C1649.8,-285.07 1614.66,-288 1571.4,-288 1528.14,-288 1493,-285.07 1493,-281.45 1493,-281.45 1493,-222.55 1493,-222.55 1493,-218.93 1528.14,-216 1571.4,-216 1614.66,-216 1649.8,-218.93 1649.8,-222.55 1649.8,-222.55 1649.8,-281.45 1649.8,-281.45"/>
<path fill="none" stroke="black" stroke-width="2" d="M1649.8,-281.45C1649.8,-277.84 1614.66,-274.91 1571.4,-274.91 1528.14,-274.91 1493,-277.84 1493,-281.45"/>
<text text-anchor="middle" x="1571.4" y="-256.2" font-family="Arial" font-size="14.00">posts</text>
<text text-anchor="middle" x="1571.4" y="-239.4" font-family="Arial" font-size="14.00">(AWS::RDS::DBTable)</text>
</g>
<!-- job_listings -->
<g id="node13" class="node">
<title>job_listings</title>
<path fill="#ffcfb3" stroke="black" stroke-width="2" d="M1118.8,-281.45C1118.8,-285.07 1083.66,-288 1040.4,-288 997.14,-288 962,-285.07 962,-281.45 962,-281.45 962,-222.55 962,-222.55 962,-218.93 997.14,-216 1040.4,-216 1083.66,-216 1118.8,-218.93 1118.8,-222.55 1118.8,-222.55 1118.8,-281.45 1118.8,-281.45"/>
<path fill="none" stroke="black" stroke-width="2" d="M1118.8,-281.45C1118.8,-277.84 1083.66,-274.91 1040.4,-274.91 997.14,-274.91 962,-277.84 962,-281.45"/>
<text text-anchor="middle" x="1040.4" y="-256.2" font-family="Arial" font-size="14.00">job_listings</text>
<text text-anchor="middle" x="1040.4" y="-239.4" font-family="Arial" font-size="14.00">(AWS::RDS::DBTable)</text>
</g>
<!-- job_listings&#45;&gt;employers -->
<g id="edge4" class="edge">
<title>job_listings&#45;&gt;employers</title>
<path fill="none" stroke="black" d="M1040.4,-215.7C1040.4,-207.93 1040.4,-199.57 1040.4,-191.43"/>
<polygon fill="black" stroke="black" points="1043.9,-191.66 1040.4,-181.66 1036.9,-191.66 1043.9,-191.66"/>
</g>
</g>
</svg>
